PathFileType	4	(X/Y/Z)	SUBJ24_0_static_RCNL2025.trc
DataRate	CameraRate	NumFrames	NumMarkers	Units	OrigDataRate	OrigDataStartFrame	OrigNumFrames
100	100	6	25	mm	100	16	92
Frame#	Time	R_Shoulder			L_Shoulder			C7			J_Notch			R_Elbow			L_Elbow			R_Wrist			L_Wrist			R_Asis			L_Asis			Sacral			Thoracic			Sternum			R_Thigh_Lateral			R_Knee_Lateral			R_Shank_Lateral			R_Ankle_Lateral			R_Heel			R_Toe			L_Thigh_Lateral			L_Knee_Lateral			L_Shank_Lateral			L_Ankle_Lateral			L_Heel			L_Toe		
		X1	Y1	Z1	X2	Y2	Z2	X3	Y3	Z3	X4	Y4	Z4	X5	Y5	Z5	X6	Y6	Z6	X7	Y7	Z7	X8	Y8	Z8	X9	Y9	Z9	X10	Y10	Z10	X11	Y11	Z11	X12	Y12	Z12	X13	Y13	Z13	X14	Y14	Z14	X15	Y15	Z15	X16	Y16	Z16	X17	Y17	Z17	X18	Y18	Z18	X19	Y19	Z19	X20	Y20	Z20	X21	Y21	Z21	X22	Y22	Z22	X23	Y23	Z23	X24	Y24	Z24	X25	Y25	Z25
16	0.15000000	-279.627502	1342.242065	-61.068031	-306.453766	1338.841187	-397.087158	-372.262756	1394.182007	-220.969589	-234.127029	1309.150757	-232.629181	-269.527252	1120.337280	110.298286	-329.706940	1106.370728	-560.616028	-201.469666	918.069031	206.978882	-268.281013	921.532532	-685.782379	-237.319443	888.846497	-65.857170	-243.791199	885.702454	-395.846710	-410.793396	931.856201	-221.739090	-420.972351	1122.268311	-223.911362	-156.995209	1092.167114	-240.765503	-349.374969	588.444763	-29.998381	-308.559021	447.423126	-103.625336	-337.552368	308.189850	-47.561405	-365.564423	70.978065	-110.547928	-410.803619	40.810432	-166.411362	-235.507614	42.750057	-118.799736	-320.103333	584.344482	-408.282593	-319.226929	452.123413	-353.632080	-351.371674	296.921448	-401.039062	-357.906403	68.451607	-329.789429	-399.112885	40.799454	-270.221680	-235.042511	46.728821	-312.311737
17	0.16000000	-279.673401	1342.212036	-61.168400	-306.499054	1338.845581	-397.048889	-372.411560	1394.151001	-220.956909	-234.150726	1309.140503	-232.635025	-269.551270	1120.273560	110.301537	-329.839417	1106.299561	-560.621765	-201.434174	917.978882	206.892990	-268.333405	921.525085	-685.738342	-237.365799	889.127502	-65.743004	-243.796783	885.704590	-395.843994	-410.905701	931.852417	-221.747986	-421.188965	1122.148926	-223.830032	-157.148621	1092.138672	-240.795166	-349.472839	588.401672	-30.060560	-308.556274	447.347382	-103.651497	-337.485474	308.140808	-47.604412	-365.467560	70.947868	-110.415672	-410.774445	40.687469	-166.460419	-235.455841	42.730297	-118.850464	-320.117737	584.416504	-408.358704	-319.162811	452.089844	-353.590698	-351.368866	296.923431	-401.050018	-357.923767	68.439682	-329.769958	-399.010529	41.126232	-270.112762	-235.041519	46.729214	-312.322479
18	0.17000000	-279.763580	1342.161865	-61.054314	-306.637634	1338.876709	-397.067108	-372.544067	1394.197144	-220.863617	-234.321732	1309.129761	-232.600769	-269.590240	1120.202759	110.201469	-329.994720	1106.317017	-560.614380	-201.509171	917.942627	206.875679	-268.490120	921.508209	-685.675354	-237.436844	889.149109	-65.672913	-243.934082	885.693665	-395.858856	-410.930267	931.804932	-221.750565	-421.219421	1122.240356	-223.847641	-157.137756	1092.222046	-240.827408	-349.492889	588.431091	-30.048679	-308.703552	447.339172	-103.666420	-337.484222	308.157898	-47.581303	-365.555206	70.977554	-110.538879	-410.761169	40.740784	-166.451965	-235.514557	42.697430	-118.810135	-320.255035	584.376892	-408.282440	-319.229828	452.104492	-353.640106	-351.370148	296.919861	-401.047699	-357.927734	68.436737	-329.766449	-399.113464	40.800652	-270.221619	-235.047287	46.712021	-312.309998
19	0.18000000	-279.857513	1342.168823	-61.042515	-306.813385	1338.890991	-397.058777	-372.689148	1394.189087	-220.852875	-234.482361	1309.133057	-232.604385	-269.721283	1120.209106	110.279770	-330.066681	1106.316284	-560.568237	-201.444489	917.894318	206.781181	-268.596291	921.524384	-685.676239	-237.440109	889.179993	-65.679520	-243.944214	885.668274	-395.796112	-411.057129	931.804016	-221.775024	-420.971161	1121.934448	-224.106445	-157.217102	1092.221191	-240.927704	-349.535400	588.428528	-30.002932	-308.689362	447.433502	-103.635040	-337.495758	308.152740	-47.581131	-365.581787	70.981201	-110.536530	-410.765259	40.678802	-166.437454	-235.461166	42.728123	-118.847672	-320.187164	584.333374	-408.224670	-319.245270	452.103180	-353.628662	-351.369995	296.921478	-401.049072	-357.947052	68.401260	-329.730133	-399.013672	41.105801	-270.115417	-235.049759	46.712246	-312.319214
20	0.19000000	-280.003906	1342.110352	-61.011105	-306.931549	1338.885864	-397.033600	-372.849335	1394.195923	-220.845566	-234.551819	1309.193481	-232.492355	-269.801605	1120.160645	110.322754	-330.233002	1106.279175	-560.534302	-201.548767	917.836334	206.781776	-268.703506	921.544647	-685.568207	-237.641220	889.234741	-65.624893	-244.087967	885.778198	-395.879150	-411.067657	931.794128	-221.774490	-420.871704	1121.801392	-224.186584	-157.225723	1092.298706	-240.934952	-349.561279	588.423645	-29.987152	-308.807281	447.382416	-103.621643	-337.621674	308.170959	-47.553577	-365.509521	70.913284	-110.532463	-410.764801	40.672474	-166.462387	-235.464188	42.743294	-118.851242	-320.406494	584.274353	-408.281616	-319.252106	452.109436	-353.653748	-351.409698	296.831787	-401.046021	-357.943573	68.452934	-329.750549	-399.117950	40.780899	-270.225189	-235.047638	46.711632	-312.309814
21	0.20000000	-280.104462	1342.135498	-60.974358	-307.049103	1338.919434	-396.988556	-372.948273	1394.125610	-220.789215	-234.652527	1309.218140	-232.536285	-269.767822	1120.099976	110.323936	-330.309418	1106.288940	-560.478027	-201.591103	917.750183	206.902603	-268.798569	921.502045	-685.594330	-237.693405	889.291626	-65.580025	-244.126053	885.793762	-395.843384	-411.175171	931.763245	-221.687149	-420.978943	1121.818481	-224.185104	-157.297684	1092.289917	-240.839310	-349.548950	588.443115	-30.012800	-308.759277	447.345703	-103.654839	-337.532654	308.179565	-47.551109	-365.474670	70.903191	-110.416908	-410.765320	40.674744	-166.465225	-235.467331	42.741829	-118.838058	-320.337891	584.287659	-408.113892	-319.268921	452.088654	-353.583130	-351.386810	296.920624	-401.018799	-357.934357	68.427666	-329.754364	-398.997406	41.080711	-270.105316	-235.062897	46.750816	-312.300201
